<svg width="37" height="37" viewBox="0 0 37 37" fill="none" xmlns="http://www.w3.org/2000/svg">
<rect x="0.5" y="0.5" width="36" height="36" rx="18" stroke="#FAFAFA" stroke-opacity="0.2"/>
<path d="M11.3203 24V13.8145H17.6436V15.1338H12.8584V18.4355H17.1855V19.748H12.8584V24H11.3203ZM18.6555 24V13.8145H22.3948C23.1149 13.8145 23.7119 13.9329 24.1858 14.1699C24.6598 14.4069 25.013 14.7282 25.2454 15.1338C25.4824 15.5348 25.6009 15.986 25.6009 16.4873C25.6009 16.9111 25.5211 17.2689 25.3616 17.5605C25.2067 17.8522 24.9993 18.0846 24.7395 18.2578C24.4798 18.431 24.1927 18.5586 23.8782 18.6406V18.7363C24.22 18.7546 24.5527 18.8639 24.8762 19.0645C25.1998 19.265 25.4664 19.5498 25.6761 19.9189C25.8902 20.2835 25.9973 20.7301 25.9973 21.2588C25.9973 21.7783 25.8743 22.2454 25.6282 22.6602C25.3867 23.0703 25.013 23.3962 24.5071 23.6377C24.0012 23.8792 23.3518 24 22.5589 24H18.6555ZM20.1936 22.6875H22.4085C23.1468 22.6875 23.6754 22.5439 23.9944 22.2568C24.3134 21.9697 24.4729 21.612 24.4729 21.1836C24.4729 20.86 24.3909 20.5661 24.2268 20.3018C24.0673 20.0329 23.8372 19.8187 23.5364 19.6592C23.2356 19.4997 22.8802 19.4199 22.47 19.4199H20.1936V22.6875ZM20.1936 18.2236H22.2581C22.5999 18.2236 22.9098 18.1576 23.1878 18.0254C23.4658 17.8932 23.6845 17.7064 23.844 17.4648C24.0081 17.2188 24.0901 16.9339 24.0901 16.6104C24.0901 16.1911 23.942 15.8402 23.6458 15.5576C23.3541 15.2705 22.9052 15.127 22.2991 15.127H20.1936V18.2236Z" fill="#FAFAFA"/>
</svg>
