<svg width="37" height="37" viewBox="0 0 37 37" fill="none" xmlns="http://www.w3.org/2000/svg">
<rect x="0.5" y="0.5" width="36" height="36" rx="18" stroke="#FAFAFA" stroke-opacity="0.2"/>
<path d="M13.627 24.1367C12.7064 24.1367 11.8975 23.9248 11.2002 23.501C10.5075 23.0771 9.96517 22.4756 9.57324 21.6963C9.18587 20.9124 8.99219 19.985 8.99219 18.9141C8.99219 17.8294 9.18815 16.8975 9.58008 16.1182C9.97656 15.3343 10.5189 14.7327 11.207 14.3135C11.8952 13.8896 12.679 13.6777 13.5586 13.6777C14.1055 13.6777 14.6159 13.7598 15.0898 13.9238C15.5684 14.0833 15.9922 14.3135 16.3613 14.6143C16.735 14.915 17.0426 15.2705 17.2842 15.6807C17.5303 16.0863 17.6966 16.5374 17.7832 17.0342H16.2109C16.1152 16.7288 15.9876 16.4577 15.8281 16.2207C15.6686 15.9792 15.4772 15.7741 15.2539 15.6055C15.0306 15.4323 14.7777 15.3024 14.4951 15.2158C14.2171 15.1247 13.9072 15.0791 13.5654 15.0791C12.9912 15.0791 12.474 15.2272 12.0137 15.5234C11.5534 15.8151 11.1888 16.2458 10.9199 16.8154C10.651 17.3851 10.5166 18.0824 10.5166 18.9072C10.5166 19.7321 10.651 20.4294 10.9199 20.999C11.1888 21.5687 11.5579 22.0016 12.0273 22.2979C12.4967 22.5895 13.0299 22.7354 13.627 22.7354C14.1784 22.7354 14.6592 22.6237 15.0693 22.4004C15.4795 22.1725 15.7985 21.8535 16.0264 21.4434C16.2542 21.0332 16.3682 20.5479 16.3682 19.9873L16.7715 20.0625H13.8594V18.791H17.8652V19.9531C17.8652 20.8099 17.6829 21.5505 17.3184 22.1748C16.9583 22.7992 16.457 23.2822 15.8145 23.624C15.1764 23.9658 14.4473 24.1367 13.627 24.1367ZM18.9388 24V13.8145H20.4768V18.2441H25.5491V13.8145H27.0872V24H25.5491V19.5635H20.4768V24H18.9388Z" fill="#FAFAFA"/>
</svg>
